<svg width="373" height="124" viewBox="0 0 373 124" fill="none" xmlns="http://www.w3.org/2000/svg">
<path d="M3.60331 92.727C3.57316 92.8635 4.55303 93.091 6.6183 94.2436C8.74387 95.4266 9.43732 96.1546 11.1408 97.2769C12.6332 98.2475 12.9347 98.2475 17.1708 100.31C21.437 102.388 21.3465 102.494 23.2008 103.343C26.7132 104.951 29.5021 105.588 32.2458 106.377C41.2606 108.955 45.768 110.244 48.8282 110.927C60.7525 113.596 71.3502 113.854 77.4707 113.96C82.6866 114.051 94.822 113.975 115.158 110.927C138.524 107.423 156.207 102.267 176.965 95.7603C200.693 88.3136 204.085 85.3258 219.175 82.1106C223.2 81.2461 235.909 78.6223 253.335 78.5616C253.335 78.5616 272.285 79.6991 280.983 80.5939C287.902 81.3067 307.711 84.7798 330.73 94.2436C340.936 98.4447 350.192 103.222 353.343 104.86C364.423 110.608 369.759 114.233 369.925 113.96C370.332 113.323 349.77 95.4114 320.178 82.1106C303.656 74.6791 290.028 71.2515 282.46 69.4012C273.083 67.0959 263.255 64.7299 249.838 64.2294C239.029 63.8351 230.723 64.8209 227.421 65.2759C217.321 66.6409 209.995 68.8703 202.427 71.2211C190.699 74.8459 189.146 76.317 174.297 81.7011C167.694 84.0822 157.579 87.7373 144.388 91.3014C129.193 95.4266 116.952 97.5651 110.621 98.566C106.43 99.2334 93.616 101.357 80.4857 101.827C40.0546 103.298 3.78421 91.8777 3.60331 92.727Z" fill="#F7CCD9"/>
<path d="M18.6783 101.827C22.6731 103.95 31.688 108.667 42.7982 112.443C59.9083 118.252 73.7622 118.965 94.0531 120.026C106.912 120.694 114.615 120.269 118.173 120.026C128.394 119.314 136.158 117.873 140.786 116.993C153.388 114.597 162.584 111.685 164.906 110.927C172.579 108.439 173.121 107.696 184.503 103.343C195.357 99.1879 204.779 95.5783 216.16 92.727C226.954 90.0274 235.079 89.1023 243.295 88.1771C255.099 86.8425 267.958 85.3865 283.998 86.6605C301.982 88.0861 315.203 92.2417 326.208 95.7603C351.669 103.92 369.714 114.4 369.925 113.96C370.106 113.566 355.438 105.982 350.328 103.343C340.921 98.4751 336.233 96.0029 332.238 94.2436C325.183 91.1194 315.429 86.7515 302.088 83.6272C295.515 82.0954 289.153 81.2916 283.998 80.5939C280.546 80.1238 276.023 79.5171 270.43 79.0773C266.149 78.7436 255.506 78.0763 241.788 79.0773C229.969 79.9418 221.391 81.6556 219.175 82.1106C217.894 82.3684 215.392 82.8386 212.407 83.6424C205.321 85.5685 199.699 88.1923 181.488 94.2436C173.272 96.9736 165.9 99.4154 157.368 101.827C149.016 104.193 134.017 108.364 115.158 110.927C100.973 112.853 84.164 115.022 62.3957 112.443C59.9535 112.155 37.2959 109.455 24.7083 103.343C13.6131 97.9594 6.6183 94.2436 6.6183 94.2436C5.21632 93.5005 3.64853 92.6512 3.6033 92.727C3.49778 92.8938 11.2312 97.8836 18.6783 101.827Z" fill="#88D2D3"/>
<path d="M6.87457 43.7094C6.84442 42.2686 6.84442 40.8278 6.81427 39.387C6.73889 35.8532 6.99517 16.6981 6.81427 13.134C6.76904 12.2847 6.43739 11.9207 6.27157 11.7842C5.90977 11.4809 5.51782 11.4809 4.22137 11.4203C3.43747 11.3748 2.83448 11.3293 2.48775 11.3141C2.48775 10.7833 2.48775 10.2524 2.48775 9.72162H14.4422V11.3141C14.0804 11.3293 13.598 11.3444 13.0252 11.3899C11.0202 11.5113 10.6584 11.6781 10.4323 11.9359C10.2815 12.1027 10.0252 12.4971 10.0855 13.2857V28.3762C10.0855 38.75 10.0705 46.2725 10.1006 47.7285C10.1006 47.9408 10.1157 48.7143 9.90464 49.6849C9.81419 50.0793 9.67851 50.7162 9.30164 51.3987C8.90969 52.1267 8.39714 52.6424 7.86952 53.0822C5.83439 54.796 2.2164 56.6311 2.0355 56.3278C1.96013 56.1913 2.56313 55.797 3.6636 54.7505C4.37212 54.0832 4.71885 53.7343 5.09572 53.2642C5.54797 52.7182 6.16604 51.9902 6.54292 51.0499C6.82934 50.3067 6.90472 44.953 6.87457 43.7094Z" fill="#413333"/>
<path d="M31.7483 28.2397H10.0855V30.4237H31.7483V28.2397Z" fill="#413333"/>
<path d="M39.542 3.65509C39.542 3.73092 38.6225 3.60959 37.5521 4.18591C36.7682 4.61057 36.2858 5.23239 35.9843 5.61154C35.713 5.96037 35.3964 6.44569 35.11 7.11301C34.4316 8.67514 34.3864 10.1614 34.3562 10.8743C34.2658 13.8924 34.3713 16.592 34.4467 18.1541V44.407C34.4919 45.2564 34.8085 45.6203 34.9894 45.7568C35.3512 46.0602 35.7431 46.0602 37.0396 46.1208C37.8084 46.1663 38.4265 46.1967 38.7581 46.227C38.7581 46.7578 38.7581 47.2886 38.7581 47.8195H26.8037V46.227C27.1655 46.2118 27.6479 46.1967 28.2207 46.1512C30.2257 46.0147 30.5875 45.863 30.8136 45.6052C30.9644 45.4384 31.2206 45.044 31.1603 44.2554V29.1649C31.0247 18.9579 31.0397 11.4809 31.1453 9.81262C31.1754 9.22113 31.2809 8.40215 31.688 7.50734C31.7633 7.34051 32.0799 6.64286 32.7432 5.88454C33.7683 4.6864 34.9291 4.15558 35.1854 4.04941C37.3863 3.04843 39.527 3.53376 39.542 3.65509Z" fill="#413333"/>
<path d="M46.9589 46.2121V47.8045H57.7375V46.2121H54.8431L66.8277 15.2424V10.92H66.5112C61.2801 22.6891 56.0491 34.443 50.8181 46.2121C50.3659 46.2121 49.8985 46.2121 49.4463 46.2121C48.6021 46.2121 47.773 46.2121 46.9589 46.2121Z" fill="#413333"/>
<path d="M86.6664 46.1815V47.774H75.8878V46.1815H78.7822L66.7976 15.2118V10.9046H67.1141C72.3602 22.6585 77.5913 34.4276 82.8223 46.1815C84.1036 46.1815 85.385 46.1815 86.6664 46.1815Z" fill="#413333"/>
<path d="M59.9686 32.9413H73.6718L74.4406 34.9432H59.1998L59.9686 32.9413Z" fill="#413333"/>
<path d="M94.5958 47.774V46.1815H97.7917C98.3495 46.1208 98.5605 45.8782 98.6208 45.772C98.7264 45.6052 98.7414 45.3625 98.7716 44.862C98.8017 44.2402 98.8168 43.9369 98.8168 43.9217C98.8168 43.2241 98.8771 30.7422 98.9676 13.5132C98.9676 13.5132 99.1635 10.9198 96.3897 10.9198C93.616 10.9198 93.616 10.9198 93.616 10.9198V9.78229H112.158C112.867 9.82779 115.188 10.0553 117.148 11.9056C118.369 13.0582 118.927 14.3474 119.168 15.0753C119.289 15.5758 119.379 16.0915 119.454 16.6526C119.801 19.1854 119.56 21.43 119.168 23.1893C119.078 23.4623 118.927 23.9022 118.701 24.4178C118.324 25.2671 116.635 28.8312 112.701 30.7422C112.083 31.0455 110.982 31.5612 109.445 31.7432C108.163 31.8948 107.093 31.7431 106.384 31.5915C105.661 31.2275 104.003 30.4085 103.43 28.6189C103.113 27.6027 103.113 27.6027 103.113 27.6027C103.55 28.1487 104.289 28.8919 105.405 29.3317C106.204 29.6654 106.912 29.7109 107.379 29.7564C107.817 29.7867 108.57 29.8474 109.415 29.6654C110.621 29.3924 111.389 28.7554 112.309 27.9971C112.882 27.5269 113.666 26.7989 114.434 25.7676C114.706 25.1913 114.977 24.5088 115.188 23.7353C115.58 22.34 115.671 21.0964 115.671 20.1561C115.656 19.1248 115.565 18.2754 115.475 17.6385C115.309 16.4706 115.188 15.682 114.766 14.7568C114.404 13.9682 113.967 13.3919 113.636 13.0127C113.123 12.6639 112.46 12.2696 111.631 11.9359C111.148 11.7387 110.44 11.4961 109.565 11.3293C108.585 11.1473 108.344 11.2383 106.309 11.2079C103.912 11.1624 103.339 11.0259 102.812 11.4961C102.314 11.9662 102.224 12.6942 102.209 13.1795C102.209 23.8415 102.209 34.5186 102.209 45.1805C102.224 45.3019 102.269 45.6052 102.51 45.8478C102.676 46.0147 102.872 46.0905 103.008 46.136C103.324 46.2422 103.581 46.227 103.852 46.2118C104.425 46.1815 104.998 46.2118 105.555 46.1967C105.902 46.1815 106.188 46.1815 106.354 46.1815C106.354 46.7123 106.354 47.2432 106.354 47.7588H94.5958V47.774Z" fill="#413333"/>
<path d="M131.68 47.774V46.1815H134.876C135.434 46.1208 135.645 45.8782 135.705 45.772C135.811 45.6052 135.826 45.3625 135.856 44.862C135.886 44.2402 135.901 43.9369 135.901 43.9217C135.901 43.2241 135.962 30.7422 136.052 13.5132C136.052 13.5132 136.248 10.9198 133.474 10.9198C130.7 10.9198 130.7 10.9198 130.7 10.9198V9.78229H149.243C149.951 9.82779 152.273 10.0553 154.232 11.9056C155.453 13.0582 156.011 14.3474 156.252 15.0753C156.373 15.5758 156.464 16.0915 156.539 16.6526C156.886 19.1854 156.644 21.43 156.252 23.1893C156.162 23.4623 156.011 23.9022 155.785 24.4178C155.408 25.2671 153.72 28.8312 149.785 30.7422C149.167 31.0455 148.067 31.5612 146.529 31.7432C145.248 31.8948 144.177 31.7431 143.469 31.5915C142.745 31.2275 141.087 30.4085 140.514 28.6189C140.198 27.6027 140.198 27.6027 140.198 27.6027C140.635 28.1487 141.373 28.8919 142.489 29.3317C143.288 29.6654 143.997 29.7109 144.464 29.7564C144.901 29.7867 145.655 29.8474 146.499 29.6654C147.705 29.3924 148.474 28.7554 149.393 27.9971C149.966 27.5269 150.75 26.7989 151.519 25.7676C151.79 25.1913 152.062 24.5088 152.273 23.7353C152.665 22.34 152.755 21.0964 152.755 20.1561C152.74 19.1248 152.65 18.2754 152.559 17.6385C152.393 16.4706 152.273 15.682 151.851 14.7568C151.489 13.9682 151.052 13.3919 150.72 13.0127C150.207 12.6639 149.544 12.2696 148.715 11.9359C148.233 11.7387 147.524 11.4961 146.65 11.3293C145.67 11.1473 145.429 11.2383 143.394 11.2079C140.997 11.1624 140.424 11.0259 139.896 11.4961C139.399 11.9662 139.308 12.6942 139.293 13.1795C139.293 23.8415 139.293 34.5186 139.293 45.1805C139.308 45.3019 139.353 45.6052 139.595 45.8478C139.76 46.0147 139.956 46.0905 140.092 46.136C140.409 46.2422 140.665 46.227 140.936 46.2118C141.509 46.1815 142.082 46.2118 142.64 46.1967C142.986 46.1815 143.273 46.1815 143.439 46.1815C143.439 46.7123 143.439 47.2432 143.439 47.7588H131.68V47.774Z" fill="#413333"/>
<path d="M175.835 47.774V46.6668H178.774C178.774 46.6668 179.95 46.9398 180.267 45.8933V30.454H184.503V45.9843C184.503 45.9843 184.503 46.8033 185.95 46.8033H187.774V48.1531H175.85V47.774H175.835Z" fill="#413333"/>
<path d="M180.267 30.454L168.629 12.4971C168.629 12.4971 168.629 11.7236 166.986 11.7236H163.956V9.78229H176.95L176.996 11.8752H173.483C173.483 11.8752 172.036 11.7842 172.564 12.8004L180.267 24.2206L182.332 27.1174V30.454H180.267Z" fill="#413333"/>
<path d="M184.503 30.454L196.141 12.4971C196.141 12.4971 196.141 11.7236 197.784 11.7236H200.814V9.78229H187.819L187.774 11.8752H191.287C191.287 11.8752 192.734 11.7842 192.206 12.8004L184.503 24.2206L182.438 27.1174V30.454H184.503Z" fill="#413333"/>
<path d="M181.593 30.727V27.0871H183.267V30.8028L181.593 30.727Z" fill="#413333"/>
<path d="M228.371 37.0817C228.371 37.0817 226.909 39.842 227.21 42.3444C227.512 44.8469 229.833 46.3938 229.833 46.3938C229.833 46.3938 231.356 48.1076 234.944 48.1076C238.532 48.1076 242.436 48.9721 245.903 44.316C245.903 44.316 247.848 41.6164 247.848 37.4609C247.848 33.2901 246.024 31.455 246.024 31.455C246.024 31.455 244.26 29.4379 239.753 25.5705L233.723 20.1864C233.436 19.8679 231.718 17.9266 232.064 15.2725C232.215 14.0895 232.713 13.2251 233.059 12.7094C233.316 12.3909 233.708 11.9662 234.281 11.5871C235.14 11.0108 235.984 10.8288 236.466 10.7529C237.763 10.4799 238.848 10.4041 239.632 10.4041C240.657 10.4041 241.245 10.4041 241.969 10.6923C243.084 11.1321 243.717 11.9056 243.928 12.1786C244.336 12.7094 244.547 13.2402 244.652 13.5739C244.833 14.0137 244.999 14.4535 245.18 14.8933C245.285 15.2422 245.391 15.6062 245.511 15.955C245.707 15.4697 245.903 14.9388 246.054 14.3474C246.235 13.6649 246.356 13.1947 246.356 12.5577C246.356 12.1937 246.356 11.5871 246.069 10.8894C245.813 10.2524 245.436 9.82779 245.195 9.58513C244.32 8.94814 242.391 7.75 239.632 7.46184C236.225 7.11302 233.662 8.41732 232.758 8.93298C232.758 8.93298 229.652 10.3434 228.733 13.589C228.462 14.5445 228.341 15.5152 228.311 16.41C228.266 17.4413 228.296 17.8963 228.341 18.1541C228.447 18.7759 228.642 19.2916 228.899 19.9741C229.08 20.4291 229.215 20.8082 229.426 21.1874C229.788 21.8699 230.18 22.2794 231.024 23.1438C232.291 24.4178 232.909 25.0548 233.768 25.8434C234.507 26.5259 234.884 26.8748 235.411 27.3146C236.904 28.5582 237.461 28.7857 238.728 29.8929C239.135 30.2417 239.723 30.7725 240.401 31.4853C241.562 32.4408 242.346 33.3811 242.843 34.0636C243.356 34.7764 243.823 35.4134 244.124 36.3992C244.441 37.3699 244.456 38.2343 244.426 38.7803C244.426 39.2808 244.351 40.1756 243.898 41.1614C243.461 42.1169 242.873 42.7236 242.511 43.0572C241.743 43.5881 240.311 44.4525 238.306 44.7559C235.471 45.1957 233.255 44.2554 232.396 43.8307C231.612 43.4516 230.919 42.7842 230.919 42.7842C230.482 42.4051 230.044 42.0259 229.637 41.4193C229.487 41.1918 229.276 40.8126 229.004 39.9633C228.778 39.3263 228.507 38.3405 228.371 37.0817Z" fill="#413333"/>
<path d="M257.978 48.1683V46.8488H260.993C260.993 46.8488 262.275 47.046 262.275 45.5597V29.1345H265.621V45.5597C265.621 45.5597 265.516 46.8488 266.933 46.8488H269.857V48.1683H257.978Z" fill="#413333"/>
<path d="M269.933 10.0856V11.4051H266.918C266.918 11.4051 265.636 11.2079 265.636 12.6942V29.1194H262.29V12.6942C262.29 12.6942 262.395 11.4051 260.978 11.4051H258.054V10.0856H269.933Z" fill="#413333"/>
<path d="M269.013 32.1678C272.812 37.4002 276.701 42.1776 280.591 46.5152C280.892 46.8185 281.39 47.2432 282.083 47.5768C282.4 47.7285 282.716 47.8346 283.591 48.047C284.706 48.32 285.339 48.4565 286.274 48.5778C287.058 48.684 288.008 48.7446 289.093 48.7295C289.636 48.7143 290.043 48.593 290.299 48.4868C290.857 48.2745 291.249 48.0015 291.49 47.7588C292.244 47.0005 292.244 47.0005 292.244 47.0005C290.57 47.3797 289.259 47.1825 288.535 47.0005C286.998 46.6365 285.973 45.8782 284.993 45.1654C284.043 44.4677 283.44 43.8611 282.264 42.6478C280.862 41.207 279.882 40.024 279.716 39.8268C279.159 39.0988 271.018 28.5127 272.435 30.4237C271.832 29.6654 271.214 28.907 270.611 28.1487L282.867 13.0734C282.867 13.0734 283.621 11.4051 284.887 11.4051H288.927V10.0856H277.335V11.4051H280.335C280.606 11.3748 280.938 11.3899 281.043 11.5719C281.269 11.9511 280.335 12.8762 280.108 13.1189C278.827 14.4232 274.636 19.3977 268.455 26.8596L266.601 28.7251C267.37 29.8777 268.169 31.0152 269.013 32.1678Z" fill="#413333"/>
<path d="M299.374 48.1683V46.8488H302.389C302.389 46.8488 303.671 47.046 303.671 45.5597V29.1345H307.017V45.5597C307.017 45.5597 306.912 46.8488 308.329 46.8488H311.253V48.1683H299.374Z" fill="#413333"/>
<path d="M311.329 10.0856V11.4051H308.314C308.314 11.4051 307.032 11.2079 307.032 12.6942V29.1194H303.686V12.6942C303.686 12.6942 303.791 11.4051 302.374 11.4051H299.45V10.0856H311.329Z" fill="#413333"/>
<path d="M322.198 48.1683V46.8488H325.394C325.394 46.8488 325.861 46.864 326.208 46.5152C326.524 46.1967 326.539 45.6962 326.539 45.5445C326.569 43.4667 326.524 18.3968 326.539 16.6981C326.539 16.4858 326.554 14.9692 326.569 12.8611C326.569 11.6629 326.569 10.6923 326.569 10.0856C327.459 10.0856 328.363 10.0856 329.253 10.0856C338.283 20.9599 347.298 31.8342 356.327 42.7084C356.131 32.6531 355.935 22.5827 355.724 12.5274C355.724 12.5274 355.815 11.3899 354.956 11.3899H351.428V10.0856H362.719V11.4051H359.011C359.011 11.4051 358.347 11.7691 358.347 12.5426L358.438 40.3273V48.9569C357.594 48.9569 356.75 48.9569 355.92 48.9569C349.363 40.8733 342.805 32.6986 336.233 24.4633C333.896 21.521 331.559 18.5939 329.253 15.6517C329.253 25.6159 329.253 35.5802 329.253 45.5597C329.253 45.5597 329.343 46.6365 330.248 46.864H333.444V48.1835H322.198V48.1683Z" fill="#413333"/>
</svg>
