<?xml version="1.0" encoding="utf-8"?>
<!-- Generator: Adobe Illustrator 23.1.0, SVG Export Plug-In . SVG Version: 6.00 Build 0)  -->
<svg version="1.1" id="Слой_1" xmlns="http://www.w3.org/2000/svg" xmlns:xlink="http://www.w3.org/1999/xlink" x="0px" y="0px"
	 viewBox="0 0 373 124" style="enable-background:new 0 0 373 124;" xml:space="preserve">
<style type="text/css">
	.st0{fill:#F7CCD9;}
	.st1{fill:#88D2D3;}
	.st2{fill:#413333;}
</style>
<path class="st0" d="M3.6,92.7c0,0.1,0.9,0.4,3,1.5c2.1,1.2,2.8,1.9,4.5,3c1.5,1,1.8,1,6,3c4.3,2.1,4.2,2.2,6,3c3.5,1.6,6.3,2.2,9,3
	c9,2.6,13.5,3.9,16.6,4.6c11.9,2.7,22.5,2.9,28.6,3c5.2,0.1,17.4,0,37.7-3c23.4-3.5,41-8.7,61.8-15.2c23.7-7.4,27.1-10.4,42.2-13.6
	c4-0.9,16.7-3.5,34.2-3.5c0,0,18.9,1.1,27.6,2c6.9,0.7,26.7,4.2,49.7,13.6c10.2,4.2,19.5,9,22.6,10.6c11.1,5.7,16.4,9.4,16.6,9.1
	c0.4-0.6-20.2-18.5-49.7-31.8c-16.5-7.4-30.1-10.9-37.7-12.7c-9.4-2.3-19.2-4.7-32.6-5.2c-10.8-0.4-19.1,0.6-22.4,1
	c-10.1,1.4-17.4,3.6-25,5.9c-11.7,3.6-13.3,5.1-28.1,10.5c-6.6,2.4-16.7,6-29.9,9.6c-15.2,4.1-27.4,6.3-33.8,7.3
	c-4.2,0.7-17,2.8-30.1,3.3C40.1,103.3,3.8,91.9,3.6,92.7z"/>
<path class="st1" d="M18.7,101.8c4,2.1,13,6.8,24.1,10.6c17.1,5.8,31,6.5,51.3,7.6c12.9,0.7,20.6,0.2,24.1,0c10.2-0.7,18-2.2,22.6-3
	c12.6-2.4,21.8-5.3,24.1-6.1c7.7-2.5,8.2-3.2,19.6-7.6c10.9-4.2,20.3-7.8,31.7-10.6c10.8-2.7,18.9-3.6,27.1-4.5
	c11.8-1.3,24.7-2.8,40.7-1.5c18,1.4,31.2,5.6,42.2,9.1c25.6,8.2,43.5,18.7,43.7,18.2c0.2-0.4-11.7-6.8-19.5-10.8
	c-8.2-4.2-12.3-6.3-18.2-9c-8.9-3.9-17.9-7.8-30.1-10.6c-6.6-1.5-12.9-2.3-18.1-3c-3.1-0.4-7.8-1-13.6-1.5
	c-6.6-0.5-16.5-1.3-29.2-0.3c-10.1,0.8-18.1,2.5-22.1,3.3c-2.1,0.4-4.1,0.8-6.8,1.5c-11.7,3.1-15.8,5.7-30.9,10.6
	c-0.5,0.2-2.3,0.7-5.8,1.8c-10.3,3.2-15.5,4.8-18.9,5.8c-9.2,2.7-16.4,4.2-21.5,5.3c-5.1,1.1-11.7,2.5-20.2,3.8
	c-28.1,4.2-47.3,2.2-52.8,1.5c-2.4-0.3-25.1-3-37.7-9.1C13.6,98,6.6,94.2,6.6,94.2c-1.4-0.7-3-1.6-3-1.5
	C3.5,92.9,11.2,97.9,18.7,101.8z"/>
<path class="st2" d="M6.9,43.7c0-1.4,0-2.9-0.1-4.3c-0.1-3.5,0.2-22.7,0-26.3c0-0.8-0.4-1.2-0.5-1.3c-0.4-0.3-0.8-0.3-2.1-0.4
	c-0.8,0-1.4-0.1-1.7-0.1c0-0.5,0-1.1,0-1.6h12v1.6c-0.4,0-0.8,0-1.4,0.1c-2,0.1-2.4,0.3-2.6,0.5c-0.2,0.2-0.4,0.6-0.3,1.3v15.1
	c0,10.4,0,17.9,0,19.4c0,0.2,0,1-0.2,2c-0.1,0.4-0.2,1-0.6,1.7c-0.4,0.7-0.9,1.2-1.4,1.7c-2,1.7-5.7,3.5-5.8,3.2
	c-0.1-0.1,0.5-0.5,1.6-1.6c0.7-0.7,1.1-1,1.4-1.5C5.5,52.7,6.2,52,6.5,51C6.8,50.3,6.9,45,6.9,43.7z"/>
<path class="st2" d="M31.7,28.2H10.1v2.2h21.7V28.2z"/>
<path class="st2" d="M39.5,3.7c0,0.1-0.9,0-2,0.5c-0.8,0.4-1.3,1-1.6,1.4c-0.3,0.3-0.6,0.8-0.9,1.5c-0.7,1.6-0.7,3-0.8,3.8
	c-0.1,3,0,5.7,0.1,7.3v26.3c0,0.8,0.4,1.2,0.5,1.3c0.4,0.3,0.8,0.3,2.1,0.4c0.8,0,1.4,0.1,1.7,0.1c0,0.5,0,1.1,0,1.6h-12v-1.6
	c0.4,0,0.8,0,1.4-0.1c2-0.1,2.4-0.3,2.6-0.5c0.2-0.2,0.4-0.6,0.3-1.3V29.2C31,19,31,11.5,31.1,9.8c0-0.6,0.1-1.4,0.5-2.3
	c0.1-0.2,0.4-0.9,1.1-1.6c1-1.2,2.2-1.7,2.4-1.8C37.4,3,39.5,3.5,39.5,3.7z"/>
<path class="st2" d="M47,46.2v1.6h10.8v-1.6h-2.9l12-31v-4.3h-0.3C61.3,22.7,56,34.4,50.8,46.2c-0.5,0-0.9,0-1.4,0
	C48.6,46.2,47.8,46.2,47,46.2z"/>
<path class="st2" d="M86.7,46.2v1.6H75.9v-1.6h2.9l-12-31v-4.3h0.3c5.2,11.8,10.5,23.5,15.7,35.3C84.1,46.2,85.4,46.2,86.7,46.2z"/>
<path class="st2" d="M60,32.9h13.7l0.8,2H59.2L60,32.9z"/>
<path class="st2" d="M94.6,47.8v-1.6h3.2c0.6-0.1,0.8-0.3,0.8-0.4c0.1-0.2,0.1-0.4,0.2-0.9c0-0.6,0-0.9,0-0.9
	c0-0.7,0.1-13.2,0.2-30.4c0,0,0.2-2.6-2.6-2.6c-2.8,0-2.8,0-2.8,0V9.8h18.5c0.7,0,3,0.3,5,2.1c1.2,1.2,1.8,2.4,2,3.2
	c0.1,0.5,0.2,1,0.3,1.6c0.3,2.5,0.1,4.8-0.3,6.5c-0.1,0.3-0.2,0.7-0.5,1.2c-0.4,0.8-2.1,4.4-6,6.3c-0.6,0.3-1.7,0.8-3.3,1
	c-1.3,0.2-2.4,0-3.1-0.2c-0.7-0.4-2.4-1.2-3-3c-0.3-1-0.3-1-0.3-1c0.4,0.5,1.2,1.3,2.3,1.7c0.8,0.3,1.5,0.4,2,0.4
	c0.4,0,1.2,0.1,2-0.1c1.2-0.3,2-0.9,2.9-1.7c0.6-0.5,1.4-1.2,2.1-2.2c0.3-0.6,0.5-1.3,0.8-2c0.4-1.4,0.5-2.6,0.5-3.6
	c0-1-0.1-1.9-0.2-2.5c-0.2-1.2-0.3-2-0.7-2.9c-0.4-0.8-0.8-1.4-1.1-1.7c-0.5-0.3-1.2-0.7-2-1.1c-0.5-0.2-1.2-0.4-2.1-0.6
	c-1-0.2-1.2-0.1-3.3-0.1c-2.4,0-3-0.2-3.5,0.3c-0.5,0.5-0.6,1.2-0.6,1.7c0,10.7,0,21.3,0,32c0,0.1,0.1,0.4,0.3,0.7
	c0.2,0.2,0.4,0.2,0.5,0.3c0.3,0.1,0.6,0.1,0.8,0.1c0.6,0,1.1,0,1.7,0c0.3,0,0.6,0,0.8,0c0,0.5,0,1.1,0,1.6L94.6,47.8L94.6,47.8z"/>
<path class="st2" d="M131.7,47.8v-1.6h3.2c0.6-0.1,0.8-0.3,0.8-0.4c0.1-0.2,0.1-0.4,0.2-0.9c0-0.6,0-0.9,0-0.9
	c0-0.7,0.1-13.2,0.2-30.4c0,0,0.2-2.6-2.6-2.6s-2.8,0-2.8,0V9.8h18.5c0.7,0,3,0.3,5,2.1c1.2,1.2,1.8,2.4,2,3.2
	c0.1,0.5,0.2,1,0.3,1.6c0.3,2.5,0.1,4.8-0.3,6.5c-0.1,0.3-0.2,0.7-0.5,1.2c-0.4,0.8-2.1,4.4-6,6.3c-0.6,0.3-1.7,0.8-3.3,1
	c-1.3,0.2-2.4,0-3.1-0.2c-0.7-0.4-2.4-1.2-3-3c-0.3-1-0.3-1-0.3-1c0.4,0.5,1.2,1.3,2.3,1.7c0.8,0.3,1.5,0.4,2,0.4
	c0.4,0,1.2,0.1,2-0.1c1.2-0.3,2-0.9,2.9-1.7c0.6-0.5,1.4-1.2,2.1-2.2c0.3-0.6,0.5-1.3,0.8-2c0.4-1.4,0.5-2.6,0.5-3.6
	c0-1-0.1-1.9-0.2-2.5c-0.2-1.2-0.3-2-0.7-2.9c-0.4-0.8-0.8-1.4-1.1-1.7c-0.5-0.3-1.2-0.7-2-1.1c-0.5-0.2-1.2-0.4-2.1-0.6
	c-1-0.2-1.2-0.1-3.3-0.1c-2.4,0-3-0.2-3.5,0.3c-0.5,0.5-0.6,1.2-0.6,1.7c0,10.7,0,21.3,0,32c0,0.1,0.1,0.4,0.3,0.7
	c0.2,0.2,0.4,0.2,0.5,0.3c0.3,0.1,0.6,0.1,0.8,0.1c0.6,0,1.1,0,1.7,0c0.3,0,0.6,0,0.8,0c0,0.5,0,1.1,0,1.6L131.7,47.8L131.7,47.8z"
	/>
<path class="st2" d="M175.8,47.8v-1.1c0.8,0,1.5,0,2.1,0c1.3,0,1.8-0.1,2-0.5c0.2-0.2,0.3-0.5,0.3-0.7c0-5,0-10,0-15h4.2
	c0,5,0,10,0,15.1c0,0.1,0,0.4,0.2,0.7c0.2,0.2,0.4,0.3,0.6,0.4c0.6,0.2,1.2,0.2,1.7,0.2c0.7,0,1.4,0,1.8,0c0,0.4,0,0.9,0,1.3
	c-4.3,0-8.6,0-12.9,0C175.8,48,175.8,47.9,175.8,47.8z"/>
<path class="st2" d="M180.3,30.5l-11.6-18c0,0,0-0.8-1.6-0.8h-3V9.8h13l0,2.1h-3.5c0,0-1.4-0.1-0.9,0.9l7.7,11.4l2.1,2.9v3.3H180.3z
	"/>
<path class="st2" d="M184.5,30.5l11.6-18c0,0,0-0.8,1.6-0.8h3V9.8h-13l0,2.1h3.5c0,0,1.4-0.1,0.9,0.9l-7.7,11.4l-2.1,2.9v3.3H184.5z
	"/>
<path class="st2" d="M181.6,30.7v-3.6h1.7v3.7L181.6,30.7z"/>
<path class="st2" d="M228.4,37.1c0,0-1.5,2.8-1.2,5.3c0.3,2.5,2.6,4,2.6,4s1.5,1.7,5.1,1.7s7.5,0.9,11-3.8c0,0,1.9-2.7,1.9-6.9
	c0-4.2-1.8-6-1.8-6s-1.8-2-6.3-5.9l-6-5.4c-0.3-0.3-2-2.3-1.7-4.9c0.2-1.2,0.6-2,1-2.6c0.3-0.3,0.6-0.7,1.2-1.1
	c0.9-0.6,1.7-0.8,2.2-0.8c1.3-0.3,2.4-0.3,3.2-0.3c1,0,1.6,0,2.3,0.3c1.1,0.4,1.7,1.2,2,1.5c0.4,0.5,0.6,1.1,0.7,1.4
	c0.2,0.4,0.3,0.9,0.5,1.3c0.1,0.3,0.2,0.7,0.3,1.1c0.2-0.5,0.4-1,0.5-1.6c0.2-0.7,0.3-1.2,0.3-1.8c0-0.4,0-1-0.3-1.7
	c-0.3-0.6-0.6-1.1-0.9-1.3c-0.9-0.6-2.8-1.8-5.6-2.1c-3.4-0.3-6,1-6.9,1.5c0,0-3.1,1.4-4,4.7c-0.3,1-0.4,1.9-0.4,2.8
	c0,1,0,1.5,0,1.7c0.1,0.6,0.3,1.1,0.6,1.8c0.2,0.5,0.3,0.8,0.5,1.2c0.4,0.7,0.8,1.1,1.6,2c1.3,1.3,1.9,1.9,2.7,2.7
	c0.7,0.7,1.1,1,1.6,1.5c1.5,1.2,2.1,1.5,3.3,2.6c0.4,0.3,1,0.9,1.7,1.6c1.2,1,1.9,1.9,2.4,2.6c0.5,0.7,1,1.3,1.3,2.3
	c0.3,1,0.3,1.8,0.3,2.4c0,0.5-0.1,1.4-0.5,2.4c-0.4,1-1,1.6-1.4,1.9c-0.8,0.5-2.2,1.4-4.2,1.7c-2.8,0.4-5.1-0.5-5.9-0.9
	c-0.8-0.4-1.5-1-1.5-1c-0.4-0.4-0.9-0.8-1.3-1.4c-0.1-0.2-0.4-0.6-0.6-1.5C228.8,39.3,228.5,38.3,228.4,37.1z"/>
<path class="st2" d="M258,48.2v-1.3h3c0,0,1.3,0.2,1.3-1.3V29.1h3.3v16.4c0,0-0.1,1.3,1.3,1.3h2.9v1.3H258z"/>
<path class="st2" d="M269.9,10.1v1.3h-3c0,0-1.3-0.2-1.3,1.3v16.4h-3.3V12.7c0,0,0.1-1.3-1.3-1.3H258v-1.3H269.9z"/>
<path class="st2" d="M269,32.2c3.8,5.2,7.7,10,11.6,14.3c0.3,0.3,0.8,0.7,1.5,1.1c0.3,0.2,0.6,0.3,1.5,0.5c1.1,0.3,1.7,0.4,2.7,0.5
	c0.8,0.1,1.7,0.2,2.8,0.2c0.5,0,1-0.1,1.2-0.2c0.6-0.2,0.9-0.5,1.2-0.7c0.8-0.8,0.8-0.8,0.8-0.8c-1.7,0.4-3,0.2-3.7,0
	c-1.5-0.4-2.6-1.1-3.5-1.8c-1-0.7-1.6-1.3-2.7-2.5c-1.4-1.4-2.4-2.6-2.5-2.8c-0.6-0.7-8.7-11.3-7.3-9.4c-0.6-0.8-1.2-1.5-1.8-2.3
	l12.3-15.1c0,0,0.8-1.7,2-1.7h4v-1.3h-11.6v1.3h3c0.3,0,0.6,0,0.7,0.2c0.2,0.4-0.7,1.3-0.9,1.5c-1.3,1.3-5.5,6.3-11.7,13.7l-1.9,1.9
	C267.4,29.9,268.2,31,269,32.2z"/>
<path class="st2" d="M299.4,48.2v-1.3h3c0,0,1.3,0.2,1.3-1.3V29.1h3.3v16.4c0,0-0.1,1.3,1.3,1.3h2.9v1.3H299.4z"/>
<path class="st2" d="M311.3,10.1v1.3h-3c0,0-1.3-0.2-1.3,1.3v16.4h-3.3V12.7c0,0,0.1-1.3-1.3-1.3h-2.9v-1.3H311.3z"/>
<path class="st2" d="M322.2,48.2v-1.3h3.2c0,0,0.5,0,0.8-0.3c0.3-0.3,0.3-0.8,0.3-1c0-2.1,0-27.1,0-28.8c0-0.2,0-1.7,0-3.8
	c0-1.2,0-2.2,0-2.8c0.9,0,1.8,0,2.7,0c9,10.9,18,21.7,27.1,32.6c-0.2-10.1-0.4-20.1-0.6-30.2c0,0,0.1-1.1-0.8-1.1h-3.5v-1.3h11.3
	v1.3H359c0,0-0.7,0.4-0.7,1.1l0.1,27.8V49c-0.8,0-1.7,0-2.5,0c-6.6-8.1-13.1-16.3-19.7-24.5c-2.3-2.9-4.7-5.9-7-8.8
	c0,10,0,19.9,0,29.9c0,0,0.1,1.1,1,1.3h3.2v1.3L322.2,48.2L322.2,48.2z"/>
</svg>
