<svg width="754" height="506" viewBox="0 0 754 506" fill="none" xmlns="http://www.w3.org/2000/svg">
<g clip-path="url(#clip0_82_6)">
<path d="M433.964 317.884C443.611 314.924 448.389 308.346 451.335 300.16C451.643 299.299 452.371 298.569 452.901 297.781C453.382 298.589 454.296 299.385 454.294 300.211C454.25 311.229 455.537 322.322 452.792 333.23C451.416 338.708 449.018 344.048 446.512 349.21C440.93 360.747 431.237 368.276 419.005 372.772C416.545 373.675 413.488 372.994 410.704 373.065C409.13 373.102 407.204 372.625 406.028 373.315C400.935 376.329 396.069 379.696 390.771 383.159C391.855 383.3 392.886 383.624 393.897 383.531C403.349 382.723 412.86 382.247 422.247 380.894C437.776 378.655 453.26 376.063 468.679 373.15C475.552 371.852 482.636 370.357 488.29 365.758C491.208 363.382 494.051 360.839 496.551 358.078C499.253 355.085 501.473 351.697 503.991 348.547C505.473 346.687 504.83 345.5 503.076 344.451C501.056 343.24 498.899 342.167 497.064 340.737C488.087 333.767 487.008 324.015 493.813 314.541C496.26 311.129 498.807 307.784 501.368 304.454C507.577 296.396 506.416 288.157 502.942 279.816C502.49 278.737 502.432 277.496 502.201 276.33C503.383 276.913 504.828 277.267 505.718 278.125C518.206 290.201 521.533 305.042 519.213 321.705C517.903 331.066 513.89 339.21 507.708 346.613C503.172 352.048 498.801 357.607 494.369 363.126C493.737 363.914 493.179 364.748 492.079 366.252C493.841 365.78 494.789 365.638 495.637 365.28C508.086 359.966 520.496 354.578 532.974 349.331C536.761 347.735 539.077 344.855 541.102 341.725C547.313 332.12 549.796 321.901 547.223 310.937C545.999 305.724 544.953 300.454 543.53 295.295C542.039 289.881 544.546 285.253 546.718 280.546C548.851 275.924 551.436 271.472 553.359 266.785C556.307 259.591 554.314 253.141 549.892 247.21C549.495 246.678 549.604 245.796 549.474 245.081C550.184 245.153 551.129 244.966 551.57 245.326C557.506 250.232 563.572 255.02 569.188 260.246C574.912 265.575 576.085 272.911 577.458 280.156C579.832 292.73 574.53 303.873 568.973 314.709C565.121 322.239 559.575 329.022 554.779 336.139C554.432 336.663 554.085 337.187 554.191 338.227C557.124 336.401 560.116 334.643 562.983 332.721C571.248 327.216 580.117 322.449 586.694 314.892C595.974 304.231 605.504 293.745 614.567 282.917C622.29 273.684 622.455 263.271 619.326 252.653C618.488 249.83 617.49 247.051 616.493 244.28C615.098 240.398 609.284 239.171 605.772 241.64C601.147 244.886 596.273 248.414 590.152 247.026C581.631 245.09 576.862 241.999 576.246 233.182C575.893 228.111 575.888 222.975 575.155 217.968C574.104 210.824 570.256 205.33 562.848 202.965C558.851 201.692 554.598 200.984 550.193 202.015C549.276 202.232 548.177 201.617 547.159 201.384C548.032 200.775 548.932 199.624 549.763 199.655C556.131 199.88 562.474 200.318 568.824 200.745C569.589 200.793 570.302 201.258 571.062 201.326C580.143 202.09 586.76 207.414 593.263 212.394C599.883 217.464 605.837 223.388 611.517 229.422C614.116 232.185 615.495 236.044 617.152 239.538C618.369 242.109 619.373 244.831 620.05 247.584C621.565 253.731 622.824 259.947 624.181 266.109C624.133 266.159 624.56 265.932 624.715 265.6C627.576 259.527 630.857 253.576 633.12 247.316C635.863 239.737 635.596 232.149 631.407 225.04C627.532 218.465 623.006 212.487 617.49 206.99C611.229 200.754 603.863 196.803 595.422 193.993C589.913 192.159 584.507 190.251 578.525 190.251C578.068 190.252 577.593 190.032 577.172 189.826C576.95 189.717 576.837 189.41 576.301 188.7C583.055 186.122 589.626 183.62 596.702 180.918C595.086 178.904 593.597 177.175 592.281 175.334C591.844 174.729 591.438 173.628 591.737 173.154C592.058 172.646 593.331 172.277 594.031 172.427C601.571 174.072 609.411 175.094 616.513 177.757C623.976 180.557 629.207 186.318 633.173 193.084C635.939 197.799 637.908 202.644 637.91 208.222C638.191 208.212 638.473 208.202 638.755 208.192C638.961 207.293 639.366 206.378 639.332 205.497C638.907 193.901 638.362 182.318 633.737 171.463C632.481 168.518 630.397 166.274 627.016 165.557C626.188 165.386 625.057 166.017 624.187 166.484C622.767 167.249 621.542 168.477 620.049 168.971C617.934 169.679 616.41 168.427 616.408 166.337C616.411 165.324 616.523 164.3 616.679 163.293C617.028 161.146 618.342 160.175 620.607 160.628C622.315 160.976 624.04 161.311 625.684 161.836C627.216 162.326 628.651 163.057 630.141 163.689C632.088 157.12 627.612 151.485 620.797 151.483C612.976 151.478 605.842 154.496 598.388 156.165C592.167 157.551 585.883 159.075 579.578 159.537C572.207 160.077 565.643 157.186 559.88 153.151C552.239 147.792 544.305 142.971 534.867 140.915C532.127 140.318 529.103 140.782 526.22 140.71C525.801 140.701 525.39 140.455 524.108 140.029C525.822 139.073 526.851 138.291 528.024 137.892C542.35 133.023 557.007 129.995 572.127 129.722C582.286 129.541 592.275 130.736 601.411 134.739C606.521 136.979 610.99 140.469 615.776 143.359C618.476 144.979 621.241 146.507 623.976 148.071C624.156 147.873 624.334 147.666 624.505 147.47C624.4 146.964 624.421 146.396 624.176 145.974C618.482 136.249 612.206 126.887 602.959 119.858C597.4 115.637 591.678 111.527 585.577 108.052C574.118 101.522 562.006 96.4607 548.342 94.8531C537.529 93.5783 527.501 90.0399 519.75 82.601C515.92 78.9208 512.951 74.4378 509.392 70.4788C505.5 66.1496 501.392 62.0001 497.38 57.2998C499.033 58.0476 500.698 58.7641 502.322 59.5571C503.152 59.9629 503.817 60.7784 504.683 60.9776C512.202 62.732 519.691 64.6816 527.313 65.9864C535.736 67.442 544.024 69.112 550.517 74.6194C554.646 78.1258 558.319 82.1294 562.103 85.9812C566.291 90.2405 570.181 94.6735 575.869 97.4808C580.703 99.8699 584.977 103.234 589.538 106.119C590.528 106.744 591.685 107.119 593.209 107.16C591.694 104.35 590.137 101.57 588.694 98.7227C585.941 93.3007 584.931 87.5241 585.705 81.4665C586.413 75.9233 587.527 70.4123 588.031 64.8675C589.299 51.0646 584.145 39.9015 572.873 31.4932C570.385 29.6378 567.515 28.2505 564.916 26.5094C564.297 26.094 564.077 25.1592 563.667 24.4627C564.612 24.2752 565.624 23.8071 566.49 23.9688C567.484 24.1525 568.381 24.8495 569.279 25.3964C575.663 29.2831 581.856 33.4832 588.452 37.0225C594.69 40.3668 599.322 45.1071 603.346 50.4979C608.351 57.2008 612.281 64.3983 613.262 72.8357C613.988 79.1101 612.296 85.1888 611.38 91.3595C610.384 98.0672 609.462 104.858 609.574 111.569C609.636 115.022 611.299 118.879 613.47 121.673C619.547 129.495 625.385 137.409 629.811 146.236C629.924 146.468 630.199 146.62 630.609 147.016C630.936 146.338 631.363 145.811 631.419 145.261C631.91 140.536 632.829 135.78 632.619 131.092C632.442 127.286 631.314 123.417 629.837 119.875C626.544 111.944 626.97 103.983 629.416 95.9022C631.102 90.3314 633.096 84.847 634.825 79.2835C636.998 72.3073 636.514 65.3114 635.48 58.304C635.178 56.2286 635.273 54.0841 635.184 51.9704C635.622 51.8624 636.051 51.7568 636.49 51.6488C637.934 54.1212 639.478 56.5482 640.806 59.0799C649.957 76.5133 651.385 94.919 645.993 113.914C644.903 117.769 641.616 121.116 639.348 124.705C636.951 128.497 634.167 132.131 634.057 136.801C633.994 139.481 634.01 142.233 633.397 144.834C631.864 151.358 634.925 156.866 637.198 162.735C637.445 161.722 637.646 160.693 637.954 159.683C639.495 154.629 641.177 149.65 646.051 146.347C647.649 145.263 649.636 144.036 650.845 146.047C651.71 147.493 651.967 149.815 651.389 151.414C650.726 153.26 648.566 153.614 646.652 152.571C645.843 152.131 645.13 151.516 644.379 150.986C637.776 158.371 637.455 173.701 643.745 182.545C651.7 166.369 665.331 155.647 681.155 147.048C681.829 146.68 682.674 146.613 684.285 146.181C683.556 147.707 683.386 148.587 682.847 149.116C677.421 154.414 675.973 161.177 674.26 167.936C672.212 175.986 669.414 183.889 667.61 191.976C665.892 199.664 660.584 205.137 655.584 210.771C653.539 213.072 650.104 214.236 647.405 216.065C646.34 216.791 645.023 217.829 644.782 218.897C642.504 228.892 640.431 238.935 638.305 248.964C638.233 249.302 638.267 249.659 638.225 250.598C639.728 249.464 640.926 248.703 641.944 247.764C646.493 243.592 651.35 239.656 653.695 233.778C654.341 232.17 655.583 230.665 656.85 229.37C664.04 222.052 671.452 215.032 681.026 210.394C687.606 207.206 694.361 206.68 701.364 207.345C703.021 207.501 703.044 208.46 702.216 209.46C701.624 210.172 700.65 210.592 699.898 211.197C697.744 212.937 695.621 214.715 692.94 216.915C698.381 219.029 703.044 220.855 707.715 222.669C707.79 222.986 707.855 223.306 707.93 223.624C706.909 224.094 705.91 224.915 704.878 224.967C700.393 225.212 695.928 225.602 692.576 228.9C690.397 231.04 688.714 233.629 686.712 235.937C683.906 239.183 681.174 242.522 678.089 245.523C673.33 250.164 667.81 249.046 662.185 247.535C658.901 246.652 655.12 245.387 652.042 246.183C644.204 248.199 637.274 252.128 633.232 259.371C628.422 267.991 623.856 276.724 618.952 285.295C617.173 288.397 614.725 291.162 612.166 294.651C614.299 293.855 615.893 293.362 617.393 292.669C621.404 290.807 625.538 290.656 629.771 291.256C631.891 291.55 633.458 292.471 633.559 294.704C633.639 296.482 631.251 299.053 629.39 299.346C627.85 299.59 625.922 297.509 625.998 295.595C626.03 294.883 626.26 294.184 626.399 293.491C621.838 292.238 613.418 295.459 607.071 300.882C609.532 300.626 611.779 300.221 614.035 300.188C617.151 300.141 619.106 301.942 619.42 304.858C619.739 307.754 617.561 308.834 615.218 309.453C614.469 309.653 613.133 309.064 612.617 308.425C611.829 307.455 611.503 306.126 610.825 304.583C612.52 303.969 614.164 303.36 615.811 302.759C615.812 302.534 615.81 302.3 615.811 302.075C614.355 302.099 612.857 301.891 611.466 302.198C607.103 303.161 603.441 305.108 600.111 308.297C592.454 315.655 584.299 322.556 576.359 329.653C576.098 329.891 575.92 330.211 575.117 331.233C577.951 330.136 580.076 329.538 581.985 328.549C594.632 322 608.3 318.432 621.927 314.555C630.496 312.119 638.791 308.734 647.21 305.775C649.622 304.922 649.939 303.3 649.073 301.319C644.76 291.477 647.625 284.241 655.526 277.605C660.641 273.309 666.386 270.073 672.682 267.645C677.018 265.977 681.25 263.952 683.687 259.858C684.845 257.926 685.542 255.752 686.431 253.686C686.786 252.85 687.098 252.007 687.432 251.167C687.754 251.156 688.076 251.145 688.409 251.14C688.568 252.072 688.878 253.002 688.83 253.924C688.793 254.731 688.173 255.525 688.126 256.335C687.475 266.606 683.58 275.985 678.419 284.962C677.173 287.133 675.361 289.128 673.446 290.85C663.368 299.898 651.911 306.831 638.895 311.284C634.654 312.739 630.396 314.171 626.099 316.175C627.062 316.208 628.031 316.183 628.991 316.281C635.945 316.987 643.277 316.719 649.739 318.738C656 320.689 661.5 324.84 667.063 328.394C668.767 329.484 669.501 331.847 670.791 333.554C673.323 336.898 675.982 340.151 678.487 343.511C678.963 344.152 678.961 345.128 679.169 345.944C678.087 346 677 346.15 675.942 346.068C675.415 346.032 674.888 345.62 674.417 345.305C669.843 342.218 664.613 341.501 659.105 342.058C650.701 342.912 642.706 341.464 635.106 338.569C628.817 336.176 623.953 329.923 625.497 324.165C625.949 322.478 626.78 320.877 627.597 318.849C626.431 318.702 625.385 318.326 624.459 318.508C620.499 319.307 616.175 318.103 612.555 320.779C612.285 320.983 611.792 320.965 611.404 320.956C601.793 320.869 593.706 325.483 585.307 329.159C580.998 331.044 576.785 333.289 572.312 334.637C565.752 336.611 560.599 340.842 554.692 343.812C542.716 349.834 530.656 355.728 518.395 361.179C509.092 365.312 499.427 368.661 489.932 372.377C488.958 372.76 488.033 373.252 487.259 374.303C493.052 373.182 498.848 372.107 504.634 370.922C517.311 368.313 529.922 365.384 542.652 363.089C550.16 361.733 557.825 360.926 565.427 360.68C570.823 360.5 576.303 361.357 581.62 362.285C588.302 363.458 594.967 364.869 601.441 366.743C607.728 368.565 613.772 371.071 619.904 373.337C620.434 373.533 620.79 374.141 621.912 375.218C619.241 375.484 617.355 375.952 615.535 375.792C606.65 375.042 598.724 377.906 591.105 382.029C590.351 382.437 589.741 383.079 588.977 383.677C593.512 387.337 598.406 390.479 602.171 394.561C605.922 398.628 610.355 402.55 611.721 408.672C609.066 409.112 606.941 408.912 605.228 407.374C597.952 400.839 589.63 395.972 580.304 392.245C571.784 388.838 563.087 387.69 554.049 389.174C549.905 389.853 545.812 391.747 542.012 393.674C536.206 396.608 530.138 397.765 523.804 397.7C518.222 397.639 513.708 394.742 509.108 392.318C502.441 388.817 496.225 384.492 489.306 381.527C481.78 378.303 473.578 377.144 465.026 380.289C466.417 380.553 467.815 380.807 469.211 381.089C473.837 382.015 478.279 383.281 481.323 386.985C482.722 388.682 483.996 390.553 482.349 392.747C481.04 394.495 476.283 395.123 474.414 393.796C472.42 392.38 473.629 390.565 474.523 389.088C475.073 388.181 476.213 387.585 477.772 386.277C474.633 385.177 471.838 384.182 469.033 383.228C459.858 380.107 450.698 383.293 441.546 384.161C439.346 384.366 437.168 384.762 434.986 385.075C434.941 385.359 434.895 385.643 434.852 385.936C436.625 386.717 438.348 387.615 440.186 388.257C453.563 392.923 464.241 401.162 474.301 410.355C476.412 412.283 479.574 413.207 482.324 414.449C482.776 414.656 483.823 414.319 484.25 413.905C490.158 408.168 497.187 407.869 504.428 409.876C511.832 411.924 518.527 415.38 524.775 419.631C529.942 423.15 535.146 426.65 540.604 429.734C546.466 433.039 553.095 434.319 559.998 433.397C562.175 433.105 564.25 431.602 566.263 430.472C567.79 429.612 569.095 428.419 570.584 427.495C570.942 427.277 571.865 427.349 572.103 427.632C572.365 427.927 572.349 428.85 572.069 429.094C570.353 430.613 568.59 432.107 566.712 433.436C565.867 434.037 564.457 434.003 563.766 434.685C559.349 439.046 553.491 441.329 548.454 444.741C543.563 448.058 538.346 449.887 532.585 450.334C523.303 451.058 514.58 449.167 506.097 445.899C494.193 441.307 485.585 433.479 479.693 422.785C471.448 407.819 457.935 398.436 442.165 391.627C437.467 389.595 432.412 388.09 427.347 387C424.437 386.374 421.168 386.987 418.064 387.19C410.156 387.697 402.241 388.289 394.337 388.851C393.7 388.9 393.049 388.971 392.335 389.603C396.224 390.624 400.13 391.593 404.002 392.665C413.694 395.365 422.089 400.428 430.593 405.294C442.856 412.321 453.836 420.854 462.089 431.946C466.073 437.301 468.421 443.825 471.198 449.944C471.847 451.383 471.276 453.345 471.255 456.032C469.617 454.999 468.226 454.622 467.902 453.827C465.957 449.033 462.159 445.662 458.502 442.17C451.602 435.6 442.838 433.101 433.276 432.326C425.52 431.694 418.08 429.929 411.198 426.644C405.689 424.014 401.354 419.925 397.867 415.178C394.622 410.76 391.969 405.939 388.79 401.466C385.663 397.072 380.99 394.377 376.215 391.719C369.767 388.122 362.62 389.231 355.715 388.821C347.552 388.336 339.328 388.459 331.191 387.808C322.855 387.135 314.602 385.709 306.281 384.826C298.45 383.989 290.578 383.417 282.708 382.779C281.908 382.712 281.069 382.993 279.551 383.203C284.002 385.067 287.795 386.563 291.5 388.224C295.33 389.935 299.049 391.873 302.881 393.593C309.239 396.437 315.771 398.943 321.996 402.009C329.779 405.849 337.305 410.133 344.971 414.182C354.602 419.271 362.096 426.619 368.74 434.739C372.504 439.347 375.79 444.335 378.961 449.345C383.47 456.472 387.693 463.778 391.975 471.04C392.333 471.657 392.167 472.555 392.25 473.32C392.016 473.505 391.769 473.683 391.534 473.868C390.459 473.153 389.203 472.599 388.351 471.693C385.389 468.558 382.577 465.496 377.91 464.299C373.732 463.225 369.824 461.3 365.764 459.829C364.536 459.379 363.206 459.154 362.097 458.88C361.378 463.019 361.031 466.956 359.97 470.728C358.476 476.032 356.5 481.24 354.602 486.436C354.368 487.08 353.325 487.472 352.652 487.99C352.147 487.244 351.245 486.529 351.185 485.739C350.132 472.22 345.927 460.24 336.379 449.814C329.272 442.052 320.227 438.579 310.462 435.795C302.268 433.453 294.926 429.626 289.718 423.418C286.945 420.12 285.985 415.249 284.896 410.919C284.188 408.127 284.5 405.006 284.723 402.049C285.534 391.126 278.51 383.979 268.32 381.881C262.041 380.582 255.353 380.752 248.829 380.513C238.797 380.144 228.756 379.853 218.705 379.79C209.13 379.722 199.542 379.759 189.965 380.178C182.77 380.503 175.597 381.516 167.918 382.27C170.997 384.286 173.672 385.969 176.279 387.736C184.126 393.068 189.08 400.488 192.746 408.825C194.198 412.121 195.777 415.363 197.312 418.627C198.058 420.199 199.412 420.474 201.181 420.862C207.139 422.172 212.114 418.149 217.71 418.149C222.352 418.152 227.118 417.972 231.592 418.827C243.981 421.207 253.154 428.378 260.712 437.481C265.122 442.797 269.086 448.457 273.427 453.819C278.72 460.342 285.292 464.703 294.682 464.043C295.579 463.981 296.519 464.835 297.446 465.262C296.571 465.749 295.729 466.547 294.807 466.672C287.902 467.585 280.989 468.809 274.071 469.069C266.973 469.339 259.864 468.657 252.763 468.347C251.252 468.283 249.757 468.046 248.1 468.115C252.124 471.762 252.894 476.721 254.096 481.359C255.45 486.565 258.446 490.469 262.578 493.796C263.019 494.156 263.601 494.431 263.865 494.886C264.2 495.452 264.276 496.154 264.459 496.799C263.763 496.816 262.96 497.041 262.387 496.8C258.178 495.003 254.081 492.941 249.808 491.283C244.892 489.385 239.785 487.912 234.821 486.102C225.481 482.707 216.437 478.671 208.879 472.446C203.524 468.04 198.208 463.398 193.904 458.101C187.996 450.834 186.036 441.852 185.133 432.719C184.844 429.824 184.975 426.864 185.147 423.94C185.214 422.788 185.573 421.173 186.415 420.6C190.608 417.751 189.755 413.47 189.542 409.984C189.354 406.781 187.448 403.494 185.545 400.714C181.616 394.997 176.509 390.262 170.321 386.689C162.644 382.258 154.315 382.333 145.724 384.345C143.831 384.786 141.934 385.173 139.841 386.231C141.827 387.161 143.768 388.188 145.801 388.993C154.471 392.427 160.367 398.741 165.376 405.912C168.1 409.823 167.542 416.46 164.221 420.097C163.129 421.289 161.18 422.13 159.504 422.429C157.05 422.862 154.968 421.535 154.192 419.437C153.783 418.328 154.282 416.019 155.176 415.489C156.938 414.445 159.22 414.133 161.335 413.801C162.046 413.685 162.875 414.429 163.88 414.882C164.922 411.987 164.768 409.403 163.195 406.908C158.886 400.075 152.987 394.812 145.616 391.03C145.368 390.9 145.074 390.829 144.793 390.801C144.627 390.789 144.449 390.921 143.84 391.15C144.492 391.8 145.066 392.312 145.571 392.871C146.916 394.404 148.422 395.857 149.524 397.54C151.275 400.211 150.44 402.591 147.336 404.651C145.498 405.866 142.375 405.428 140.879 403.372C140.282 402.547 140.162 400.845 140.668 399.969C141.643 398.301 143.221 396.95 145.104 394.843C142.419 393.162 139.46 391.442 136.66 389.521C131.511 385.997 125.72 386.367 119.83 387.28C112.761 388.377 105.654 389.335 98.65 390.752C92.1199 392.08 85.6971 393.96 79.216 395.547C76.281 396.267 73.3251 396.872 70.2481 397.556C112.41 401.812 141.521 420.019 148.902 462.462C147.916 462.155 146.396 462.131 146.021 461.49C140.915 452.743 132.149 448.341 123.253 443.984C116.039 440.451 108.244 438.686 100.32 437.313C90.0197 435.525 81.8297 430.81 75.3142 423.171C71.333 418.51 67.4688 413.526 62.5403 409.915C56.2699 405.314 49.4055 403.272 40.6408 407.214C26.9272 413.383 14.9836 421.608 3.8105 431.155C2.79498 432.027 1.98008 433.118 0.982903 434.21C0.512156 434.083 -0.0296105 433.956 -0.566588 433.809C-3.27043 433.081 -3.72554 431.534 -1.56162 429.679C3.35943 425.454 8.49058 421.445 13.3573 417.169C22.7183 408.932 34.174 404.344 45.6153 399.815C50.234 397.987 55.2128 396.972 60.0642 395.747C67.4669 393.885 72.987 389.622 76.7958 383.482C79.5752 378.997 78.8398 374.281 76.6809 369.825C75.4308 367.244 74.0432 364.719 72.5442 362.27C71.0216 359.772 70.7824 357.173 70.9937 354.285C71.8634 342.446 77.5467 332.916 86.0732 324.256C90.5524 319.709 94.1062 314.21 97.4538 308.813C100.511 303.887 98.9949 299.099 95.5002 294.889C94.4927 293.668 93.4283 292.462 92.5938 291.13C92.3039 290.654 92.6281 289.817 92.6725 289.149C93.4176 289.353 94.4949 289.317 94.8653 289.79C99.1613 295.286 103.844 300.556 105.632 307.493C107.051 313.019 109.047 318.419 110.099 324.016C112.627 337.43 110.24 350.126 102.101 361.935C97.2596 368.961 92.4849 376.006 86.1034 381.907C83.5547 384.259 80.6919 386.31 77.9707 388.511C76.953 389.337 75.9517 390.187 74.6966 391.226C85.2761 390.304 94.6305 387.16 101.959 380.284C105.595 376.872 108.076 372.26 110.699 367.985C114.548 361.731 115.647 354.649 117.625 347.819C121.02 336.081 127.224 326.599 140.16 321.774C146.096 319.555 151.32 315.436 156.767 312.036C157.855 311.36 158.858 310.098 159.256 308.932C160.974 303.896 162.727 298.842 163.948 293.696C165.433 287.448 163.304 281.662 161.144 275.912C160.69 274.712 161.231 273.17 161.166 271.79C161.115 270.651 160.874 269.525 160.691 268.233C162.369 267.333 164.051 267.089 165.287 268.708C169.24 273.874 173.616 278.833 176.844 284.399C180.819 291.275 182.311 299.079 182.404 307.042C182.566 320.799 176.725 332.621 168.679 343.983C157.42 359.882 141.637 368.677 122.708 373.271C118.169 374.374 113.766 376.135 109.404 377.858C107.934 378.439 106.787 379.805 105.485 380.82C103.172 382.612 100.869 384.401 98.0267 386.606C102.371 385.648 106.185 384.645 110.045 384.005C117.688 382.735 125.368 381.68 133.022 380.529C135.051 380.22 137.077 379.78 139.115 379.581C154.798 378.07 170.483 376.605 186.17 375.111C188.803 374.855 191.441 374.617 194.051 374.162C199.136 373.277 201.514 369.115 204.513 365.827C212.568 357.002 214.129 346.337 214.354 335.429C214.387 333.77 213.142 332.041 212.235 330.475C209.77 326.242 206.419 322.339 204.805 317.831C202.394 311.07 203.078 303.959 206.474 297.264C209.066 292.154 211.106 286.957 212.021 281.349C212.711 277.104 210.537 273.881 208.759 270.466C208.171 269.33 207.489 268.228 206.782 266.993C208.86 265.686 210.659 266.376 211.911 267.522C214.485 269.888 216.957 272.404 219.134 275.112C227.593 285.642 234.189 296.916 229.383 311.048C227.816 315.659 225.109 320.228 221.858 324.015C217.864 328.667 216.759 333.678 216.24 339.208C215.765 344.183 214.796 349.13 213.895 354.069C212.85 359.758 208.687 363.855 205.212 368.283C204.931 368.64 204.639 368.99 204.031 369.753C204.926 369.607 205.395 369.65 205.741 369.463C219.922 362.045 232.418 352.584 242.941 340.839C244.029 339.628 244.401 337.719 244.72 336.068C244.838 335.446 244.059 334.398 243.379 333.981C238.264 330.851 236.232 325.161 237.956 319.505C239.602 314.123 243.348 310.213 247.378 306.377C254.913 299.21 261.751 291.603 266.177 282.232C269.403 275.396 269.731 268.548 268.292 261.509C267.941 259.784 267.371 258.108 267.11 256.378C267.029 255.809 267.592 255.143 267.861 254.518C268.404 254.841 269.166 255.03 269.444 255.5C275.977 266.274 281.823 277.402 282.509 290.194C283.388 306.591 277.522 320.744 263.89 331.691C262.035 333.182 259.388 334.144 256.982 334.564C252.42 335.355 248.704 337.063 245.842 340.708C241.131 346.705 235.283 351.6 229.266 356.438C223.577 361.018 217.839 365.415 211.348 368.899C208.622 370.36 205.938 371.904 202.899 373.6C208.666 373.518 213.979 373.219 219.259 373.407C229.693 373.761 240.096 374.49 250.525 374.827C252.963 374.905 255.507 374.204 257.928 373.574C264.666 371.807 271.363 369.89 278.089 368.041C282.959 366.699 286.254 363.603 287.62 359.15C289.21 353.98 290.616 348.69 291.265 343.379C292.645 332.002 296.734 321.681 303.63 312.164C310.378 302.856 320.745 298.831 330.918 294.418C337.369 291.62 344.12 289.183 349.998 285.499C358.651 280.077 364.1 272.363 364.473 262.157C364.516 261.03 365.362 259.903 365.84 258.771C366.221 259.926 366.954 261.07 366.93 262.23C366.714 271.963 366.106 281.67 363.486 291.222C363.115 292.569 363.057 293.981 362.786 295.357C360.506 306.825 356.601 317.799 349.341 327.433C346.089 331.745 341.931 335.521 337.838 339.197C328.951 347.194 319.278 354.379 308.455 359.698C300.872 363.427 292.615 365.93 284.564 368.706C277.545 371.131 270.386 373.18 262.665 375.596C263.999 375.876 264.895 376.189 265.821 376.232C272.148 376.571 278.499 376.735 284.818 377.198C291.997 377.721 299.165 378.36 306.303 379.185C315.677 380.283 324.553 377.933 333.376 375.193C335.082 374.661 336.574 373.446 338.063 372.597C336.56 371.575 334.626 370.949 334.203 369.787C333.761 368.556 334.257 366.313 335.249 365.429C336.758 364.087 339.138 363.796 340.89 365.333C342.525 366.77 343.576 368.607 342.126 370.777C339.609 374.536 335.94 376.803 331.482 377.979C328.959 378.646 326.441 379.33 323.674 380.071C332.283 384.037 350.805 379.477 355.108 372.38C354.472 372.354 353.916 372.212 353.43 372.333C351.315 372.89 349.88 371.859 349.875 370.173C349.865 368.769 350.72 366.768 351.877 366.083C352.717 365.577 355.167 366.345 356.017 367.28C359.043 370.613 357.123 375.843 352.095 378.344C349.246 379.763 346.27 380.936 343.334 382.791C344.714 382.9 346.096 383.054 347.481 383.105C355.876 383.434 364.27 383.679 372.661 384.065C380.231 384.418 387.163 382.429 393.657 378.655C396.108 377.229 398.543 375.78 400.981 374.339C402.918 373.192 402.829 371.8 401.923 370.046C399.601 365.549 397.162 361.074 395.26 356.399C392.346 349.239 394.178 342.242 397.513 335.395C401.967 326.242 408.766 318.907 416.903 312.508C420.862 309.394 424.813 306.132 428.092 302.413C429.735 300.547 430.271 297.507 430.55 294.947C430.805 292.601 429.966 290.191 429.781 287.794C429.731 287.113 430.251 286.365 430.506 285.649C431.092 286.242 432.096 286.77 432.196 287.446C432.889 292.38 433.626 297.33 433.923 302.303C434.117 307.426 433.928 312.521 433.964 317.884ZM326.973 312.256C319.437 328.442 310.148 343.616 297.873 357.124C312.78 348.32 325.099 336.947 335.375 323.524C324.738 340.681 309.419 353.252 291.793 363.619C292.455 363.779 292.943 363.742 293.391 363.594C305.36 359.824 315.996 353.806 325.428 345.794C327.869 343.724 330.145 341.455 332.698 339.533C340.376 333.735 347.069 327.179 351.5 318.773C354.874 312.375 357.938 305.919 359.181 298.808C360.214 292.849 361.691 286.95 362.914 281.016C363.252 279.397 363.377 277.742 363.643 275.777C360.064 279.286 357.013 282.494 353.722 285.448C347.082 291.408 338.471 293.575 330.36 296.77C321.044 300.438 311.794 304.314 305.839 312.829C301.146 319.533 297.197 326.554 295.569 334.462C294.535 339.474 293.998 344.559 293.028 349.581C292.363 353.013 291.341 356.399 290.487 359.806C307.482 347.162 316.661 329.336 326.973 312.256ZM168.192 277.277C168.379 279.758 168.256 281.797 168.731 283.686C169.884 288.252 170.021 292.668 168.602 297.38C164.745 310.161 156.986 319.337 143.332 323.568C140.717 324.381 138.028 325.148 135.615 326.376C126.192 331.16 122.318 339.671 119.334 348.627C117.886 352.962 116.851 357.402 115.545 361.774C114.831 364.15 113.932 366.481 112.918 369.406C128.784 359.445 137.442 345.134 144.693 329.822C139.2 343.51 133.031 356.798 120.586 366.526C142.776 358.031 156.565 341.454 167.82 322.397C162.039 333.153 155.535 343.258 146.521 352.03C137.435 360.877 126.645 366.853 115.192 372.322C117.559 372.363 119.651 371.755 121.769 371.244C133.646 368.38 145.02 364.208 154.213 356.213C159.345 351.753 163.739 346.395 167.822 341.016C176.332 329.792 181.048 317.409 179.771 303.547C178.876 293.765 176.079 284.801 168.192 277.277ZM284.207 466.456C284.277 466.109 284.347 465.762 284.416 465.416C283.984 465.091 283.606 464.704 283.133 464.456C277.838 461.675 273.67 457.907 270.053 453.204C264.182 445.542 257.886 438.117 251.136 431.159C243.837 423.627 233.993 420.471 223.223 420.113C216.469 419.888 210.051 421.748 204.192 425.278C202.303 426.412 201.99 427.518 203.889 428.846C211.044 433.867 218.424 438.555 227.161 440.837C233.747 442.56 240.445 443.943 247.814 445.634C233.444 444.919 220.5 442.209 208.889 435.185C220.772 446.749 234.612 455.266 250.688 460.53C233.534 456.586 219.399 447.613 206.119 437.09C206.279 438.257 206.541 439.274 207.176 440.013C210.716 444.165 213.802 448.86 218.064 452.218C227.936 459.989 239.337 465.053 252.542 466.006C256.901 466.319 261.244 466.871 265.611 466.91C271.799 466.959 278.007 466.627 284.207 466.456ZM288.625 389.435C288.49 389.649 288.356 389.872 288.221 390.087C299.182 396.769 309.899 403.751 318.859 412.779C327.828 421.804 336.017 431.366 340.283 443.461C329.359 423.006 313.484 407.009 292.923 395.165C295.904 399.316 299.132 403.251 302.286 407.253C305.443 411.264 308.63 415.276 310.187 420.174C302.891 410.344 295.64 400.53 286.096 391.631C286.01 392.751 285.94 393.098 285.961 393.439C286.306 398.025 286.651 402.611 287.036 407.195C287.465 412.396 287.905 417.829 291.476 421.831C295.654 426.506 300.89 430.203 307.176 432.288C312.28 433.976 317.432 435.577 322.515 437.338C330.241 440.021 335.866 445.245 340.665 451.291C345.95 457.937 351.137 464.638 351.651 473.604C351.798 476.124 352.902 478.576 353.567 481.06C353.93 481.01 354.285 480.971 354.647 480.92C355.091 478.823 357.614 477.172 355.935 474.584C355.763 474.321 356.125 473.737 356.22 473.299C356.618 471.598 357.108 469.901 357.399 468.183C358.931 459.156 355.501 451.131 352 443.294C346.47 430.919 337.499 420.825 326.897 412.19C315.97 403.287 303.487 396.459 290.685 390.186C290.042 389.871 289.313 389.691 288.625 389.435ZM64.8361 407.453C68.7727 411.911 72.7223 416 76.2211 420.416C82.5794 428.453 90.8514 433.474 101.388 435.161C114.225 437.206 125.991 441.619 136.575 448.636C138.525 449.924 140.441 451.238 143.019 452.976C142.662 450.165 142.957 447.78 142.017 446.016C138.564 439.497 135.38 432.69 130.814 426.91C124.529 418.956 115.865 413.534 106.385 408.968C92.904 402.473 78.662 399.998 63.5813 400.42C61.8673 400.467 60.1548 400.823 58.4332 401.031C65.9407 403.351 73.5601 404.572 80.7052 406.979C87.9709 409.42 94.8219 412.928 101.737 416.185C106.397 418.377 117.565 427.685 118.662 429.848C110.641 425.837 104.896 418.723 95.9721 415.705C87.4292 412.819 79.8609 407.543 70.1584 407.19C79.8946 411.762 88.3414 417.815 95.3394 425.662C86.0555 418.381 76.1273 412.106 64.8361 407.453ZM522.235 430.015C522.239 430.258 522.243 430.5 522.238 430.746C516.463 430.381 510.556 430.585 504.962 429.496C499.293 428.39 493.943 426.008 488.179 424.093C499.359 433.032 512.423 437.707 526.48 440.55C525.049 440.746 523.731 440.64 522.423 440.456C509.412 438.673 498.044 433.469 487.671 426.179C486.844 425.594 485.825 425.239 484.898 424.775C484.928 426.174 485.342 427.075 485.936 427.853C495.056 439.754 507.59 446.24 523.008 448.062C532.406 449.172 541.361 448.179 549.133 441.934C550.379 440.934 552.158 440.561 553.599 439.762C555.235 438.855 556.767 437.788 558.417 436.746C557.875 436.198 557.771 436 557.619 435.966C557.25 435.877 556.853 435.796 556.474 435.823C549.726 436.337 543.737 434.342 538.275 431.052C531.929 427.23 525.819 423.073 519.575 419.102C513.183 415.031 506.297 411.925 498.437 411.322C494.028 410.975 489.804 412.004 486.663 415.405C485.467 416.701 484.023 418.287 486.396 419.827C492.334 423.683 498.673 426.869 505.802 428.193C511.185 429.179 516.747 429.433 522.235 430.015ZM554.733 250.647C554.529 250.796 554.327 250.953 554.133 251.099C554.572 252.472 555.217 253.818 555.412 255.228C555.8 258.002 556.349 260.846 556.083 263.608C555.458 269.991 551.457 275.263 548.637 280.922C546.08 286.051 543.6 291.085 545.706 296.933C546.949 300.397 547.561 304.087 548.48 307.666C550.93 317.228 551.016 326.721 546.6 336.052C545.395 338.606 543.942 341.067 542.6 343.564C544.12 342.604 545.338 341.424 545.997 340.02C549.166 333.273 552.778 326.624 555.121 319.64C558.34 310.049 558.773 300.37 553.123 291.411C552.312 290.129 551.79 288.675 551.126 287.296C557.835 295.502 561.229 304.643 558.861 315.403C564.984 305.015 565.432 294.179 563.128 282.355C566.055 287.937 567.33 297.168 565.879 303.388C563.245 314.707 558.103 325.122 551.662 335.005C551.086 335.89 550.329 336.665 549.657 337.492C549.95 337.639 550.241 337.776 550.525 337.925C559.411 327.388 567.144 316.221 571.714 303.371C574.14 296.543 576.549 289.841 575.587 282.383C574.206 271.774 570.744 262.492 561.52 255.926C559.186 254.264 556.994 252.413 554.733 250.647ZM101.88 304.673C101.514 305.053 101.216 305.226 101.163 305.447C98.8716 314.18 92.2573 320.424 86.4989 327.058C81.6547 332.631 77.0662 338.211 75.1038 345.253C73.3565 351.543 71.8174 357.852 76.0533 363.73C76.959 364.988 77.8076 366.335 78.3719 367.759C79.6558 370.997 80.7454 374.305 81.9202 377.59C82.112 377.586 82.3014 377.572 82.5026 377.565C81.6641 371.555 80.8256 365.545 79.999 359.542C80.2429 359.504 80.4963 359.465 80.7402 359.427C81.8254 363.477 82.9106 367.527 83.9935 371.569C84.3037 371.514 84.614 371.459 84.9124 371.397C88.6765 360.77 87.2733 349.923 87.2029 339.086C88.1413 344.937 89.0133 350.807 88.8697 356.677C88.724 362.463 87.5461 368.264 86.8591 373.773C98.8404 361.215 100.651 345.42 102.178 329.513C103.024 344.99 101.064 359.888 90.6651 373.119C98.9145 363.577 106.805 353.606 108.332 341.374C109.9 328.766 107.594 316.371 101.88 304.673ZM255.626 491.768C253.988 487.022 252.209 482.314 250.747 477.503C248.933 471.492 245.109 467.416 238.851 465.437C236.566 464.718 234.167 464.217 232.025 463.234C218.195 456.918 206.701 448.4 201.376 433.983C200.299 431.065 198.472 428.414 196.988 425.642C196.661 425.749 196.332 425.846 195.995 425.955C196.336 429.389 195.565 433.486 197.249 436.129C201.579 442.966 206.514 449.594 212.153 455.48C216.355 459.867 222.005 463.022 227.077 466.641C229.213 468.169 231.539 469.458 233.782 470.854C221.513 464.635 209.583 457.978 201.493 446.777C204.228 455.316 209.672 461.911 216.823 467.448C213.249 465.331 209.346 463.311 207.058 460.192C203.067 454.774 199.94 448.749 196.686 442.861C194.5 438.91 193.782 434.602 194.126 430.009C194.29 427.856 193.7 425.576 192.964 423.514C192.502 422.204 191.146 421.198 190.192 420.066C189.244 421.492 188.272 422.906 187.357 424.342C187.221 424.556 187.282 424.896 187.314 425.169C188.037 431.013 188.244 436.976 189.587 442.673C193.524 459.337 206.16 469.424 220.647 477.402C228.665 481.816 237.787 484.473 246.406 487.948C249.665 489.268 252.906 490.64 255.626 491.768ZM440.126 424.912C427.033 411.301 411.954 400.584 392.418 395.75C398.752 400.437 405.128 404.673 410.919 409.534C421.987 418.812 425.534 423.103 425.65 426.719C422.324 423.026 419.566 419.555 416.364 416.513C413.108 413.419 409.505 410.625 405.898 407.889C402.29 405.152 398.507 402.631 394.776 400.04C391.182 397.544 387.55 395.095 383.942 392.621C383.707 392.881 383.474 393.149 383.239 393.409C390.602 397.577 393.882 404.892 398.276 411.243C402.914 417.942 408.341 423.603 416.381 426.165C422.566 428.136 429.115 429.344 435.618 430.301C444.468 431.605 452.65 434.016 459.196 439.95C461.867 442.375 464.427 444.914 467.033 447.403C467.193 446.029 466.851 444.865 466.406 443.737C460.799 429.329 449.111 419.786 436.578 411.368C425.928 404.219 414.758 397.517 401.749 394.3C397.42 393.228 393.093 392.166 388.763 391.094C388.616 391.378 388.468 391.661 388.321 391.944C408.794 398.534 427.78 407.153 440.126 424.912ZM431.437 302.463C429.163 304.591 427.148 306.509 425.105 308.397C417.689 315.25 408.905 320.829 403.504 329.552C398.932 336.937 394.702 344.464 396.923 353.244C397.881 357.047 399.756 360.632 401.33 364.27C401.916 365.623 402.838 366.829 403.616 368.101C404.014 368.07 404.414 368.047 404.802 368.018C407.41 356.069 410.015 344.111 412.622 332.162C412.864 332.191 413.115 332.217 413.356 332.246C411.788 341.442 410.218 350.629 408.649 359.824C413.892 350.319 415.738 340.037 418.22 329.893C416.925 343.216 413.742 356.125 407.462 368.355C421.514 358.487 434.478 330.796 431.437 302.463ZM574.883 153.35C585.485 148.719 596.131 144.141 608.195 146.449C592.399 140.069 575.637 139.751 558.897 139.249C577.677 137.282 595.97 138.69 613.474 145.494C608.67 138.972 593.56 132.576 575.962 131.639C564.958 131.052 536.857 135.151 534.004 138.756C536.949 139.626 540.139 140.084 542.789 141.446C549.418 144.845 555.837 148.6 562.276 152.313C568.343 155.815 574.829 158.531 582.09 157.391C590.005 156.152 597.787 153.963 605.607 152.14C608.264 151.522 610.89 150.743 614.225 149.85C600.174 145.927 587.503 148.9 574.883 153.35ZM582.003 37.0628C583.139 38.8397 584.321 40.5951 585.412 42.3934C589.199 48.682 590.734 55.6587 590.487 62.8501C590.302 68.45 588.857 74.0498 588.105 79.6607C587.758 82.229 587.512 84.8357 587.611 87.406C587.899 94.8479 592.104 100.762 595.956 106.761C596.859 108.16 598.184 109.315 599.315 110.577C599.566 110.416 599.817 110.255 600.057 110.088C599.298 108.772 598.705 107.319 597.736 106.163C594.862 102.714 593.279 98.7035 593.511 94.3756C593.924 86.8208 594.903 79.2926 595.664 71.7477C595.671 71.6989 595.825 71.667 596.304 71.4449C596.562 72.182 597.046 72.8869 596.997 73.5751C596.676 78.5551 596.558 83.5743 595.778 88.5085C594.643 95.7222 596.398 101.89 601.498 107.695C601.564 106.806 601.603 106.383 601.633 105.962C601.993 100.522 601.724 94.9688 602.884 89.6703C604.214 83.6043 603.928 77.8774 602.4 72.099C601.592 69.0437 600.764 65.9934 599.946 62.9405C601.522 65.0684 603.095 67.2627 603.56 69.6789C604.589 75.0752 605.543 80.5668 605.623 86.0581C605.676 90.1597 604.197 94.3061 603.601 98.4503C602.887 103.404 603.857 108.048 606.416 112.669C606.839 112.049 607.076 111.835 607.131 111.586C607.275 110.948 607.454 110.29 607.418 109.662C606.888 101.62 608.741 93.7917 610.393 85.9331C611.568 80.3117 611.789 74.7304 610.372 69.1381C608.355 61.1187 603.688 54.5408 598.504 48.2702C594.245 43.0643 588.608 39.4649 582.003 37.0628ZM601.261 398.555C601.422 398.4 601.596 398.25 601.757 398.094C600.938 397.048 600.234 395.896 599.282 394.961C594.536 390.288 588.946 387.239 582.271 385.109C574.797 382.724 567.57 379.935 559.717 378.448C546.564 375.944 533.283 375.162 519.856 375.347C519.027 375.363 518.193 375.511 517.365 375.602C522.458 376.947 527.657 377.626 532.655 378.921C537.285 380.128 542.411 380.61 545.733 384.745C533.995 381.534 522.079 379.477 509.685 379.957C514.91 382.588 520.261 384.895 525.481 387.434C527.325 388.328 528.855 389.793 530.528 390.995C530.376 391.223 530.217 391.462 530.065 391.691C529.421 391.638 528.687 391.741 528.152 391.491C525.067 390.02 522.01 388.505 518.996 386.922C512.708 383.619 506.098 381.087 498.94 379.92C497.007 379.604 494.985 379.752 493.006 379.682C492.882 380.015 492.761 380.357 492.646 380.688C499.678 384.57 506.72 388.449 513.738 392.353C518.929 395.237 524.526 396.681 530.538 395.164C534.868 394.079 539.15 392.547 543.213 390.69C550.442 387.384 557.698 384.371 565.81 385.647C574.686 387.047 583.149 389.674 591.097 393.6C594.464 395.286 597.866 396.915 601.261 398.555ZM271.542 263.479C271.144 263.585 270.746 263.692 270.345 263.79C270.467 265.229 270.728 266.659 270.686 268.095C270.593 271.12 270.765 274.225 270.077 277.156C268.219 285.079 263.469 291.686 258.259 298.052C257.342 299.178 256.662 300.889 256.744 302.254C257.099 308.469 257.137 314.637 255.288 320.739C254.598 323.015 253.778 325.259 252.907 327.846C265.378 316.357 269.727 302.001 272.026 286.815C271.402 304.196 265.182 319.494 251.134 332.334C255.304 333.382 258.336 332.907 260.985 331.082C270.509 324.517 275.927 315.359 278.637 304.854C281.048 295.508 280.5 286.185 277.219 277.202C275.532 272.572 273.449 268.058 271.542 263.479ZM445.674 329.521C445.381 329.375 445.1 329.235 444.807 329.088C438.48 346.375 427.25 360.222 411.068 370.745C412.532 371.206 413.67 371.398 414.779 371.251C424.691 369.964 432.071 364.189 438.136 357.333C444.746 349.862 448.906 341.05 450.672 331.304C452.308 322.288 451.972 313.34 451.582 304.191C448.815 313.004 441.829 317.295 433.309 320.366C433.221 329.286 429.6 337.719 426.452 346.251C426.76 346.374 427.076 346.496 427.384 346.62C431.257 340.416 435.13 334.213 439.003 328.009C439.284 328.149 439.565 328.289 439.847 328.43C436.576 334.116 433.524 339.931 429.956 345.452C427.659 349.012 424.545 352.096 421.915 355.473C420.398 357.426 419.092 359.529 417.7 361.571C417.277 362.191 416.854 362.811 416.428 363.422C416.641 363.571 416.863 363.717 417.076 363.867C423.051 359.256 428.42 354.049 432.804 348.008C437.216 341.923 441.394 335.684 445.674 329.521ZM646.177 213.301C646.455 213.545 646.734 213.789 647.013 214.033C648.549 213.284 650.545 212.889 651.545 211.731C655.803 206.812 660.988 202.132 663.55 196.495C667.155 188.572 668.734 179.871 671.173 171.501C672.762 166.022 674.276 160.526 675.952 155.07C676.353 153.763 677.254 152.575 677.924 151.326C677.679 151.129 677.443 150.93 677.197 150.733C673.411 153.548 669.578 156.3 665.852 159.183C656.811 166.19 649.198 174.202 645.195 184.847C643.771 188.632 644.411 192.117 645.381 195.701C648.835 187.819 652.572 180.198 657.467 173.111C653.686 182.272 648.239 190.866 647.296 200.953C648.882 199.216 649.899 197.209 651.08 195.289C652.236 193.423 653.46 191.586 654.837 189.867C656.277 188.075 657.82 186.33 659.533 184.764C661.109 183.33 662.952 182.17 664.681 180.891C655.91 190.61 647.544 200.212 646.177 213.301ZM501.248 312.155C501.61 311.993 501.973 311.83 502.345 311.665C503.039 313.457 504.22 315.212 504.326 317.05C504.681 323.414 504.626 329.804 504.812 336.186C504.856 337.674 505.197 339.139 505.409 340.61C513.635 329.237 511.227 316.954 510.831 304.862C513.091 316.557 513.536 328.223 509.738 339.938C517.084 329.373 518.937 317.869 517.554 305.846C516.693 298.351 510.37 285.026 506.995 283.08C506.95 283.251 506.857 283.436 506.88 283.598C506.94 284.051 507.024 284.516 507.161 284.948C509.285 291.664 508.851 298.08 504.231 304.071C501.903 307.095 499.735 310.226 497.398 313.253C492.747 319.28 490.294 325.666 493.48 332.819C495.216 336.723 498.313 339.371 502.993 341.033C503.297 335.345 503.673 330.266 503.814 325.184C503.938 320.679 504.289 316.075 501.248 312.155ZM607.438 229.437C607.585 229.266 607.73 229.087 607.877 228.916C607.729 228.59 607.616 228.245 607.425 227.95C607.171 227.568 606.892 227.174 606.548 226.872C598.142 219.534 590.513 211.265 580.163 206.182C576.77 204.512 572.914 203.652 568.815 202.266C571.367 205.838 574.274 208.463 575.3 211.685C576.842 216.531 577.347 221.749 577.773 226.866C578.375 233.962 578.3 240.77 587.194 244.021C593.882 246.467 601.852 242.513 605.465 238.751C606.975 237.183 606.931 235.582 604.414 235.094C598.908 234.029 593.376 233.055 587.842 232.11C586.5 231.879 585.089 231.919 583.716 231.837C583.752 231.593 583.788 231.349 583.825 231.105C591.914 230.212 599.671 232.062 607.681 233.225C604.786 230.645 601.721 228.381 598.541 226.29C595.977 224.605 593.323 223.572 589.834 224.497C586.24 225.451 583.587 223.546 582.091 221.566C584.578 221.902 587.587 222.896 590.455 222.531C593.019 222.209 594.95 222.48 597.011 223.69C600.415 225.703 603.954 227.539 607.438 229.437ZM608.077 372.822C608.096 372.592 608.113 372.353 608.142 372.12C605.533 371.328 602.946 370.465 600.304 369.776C590.706 367.276 581.4 363.816 571.078 363.994C561.211 364.163 551.357 363.7 541.547 365.785C530.225 368.181 518.842 370.313 507.487 372.586C507.207 372.642 506.977 372.92 506.719 373.092C509.398 373.237 511.883 372.655 514.381 372.502C530.488 371.476 546.598 370.385 562.714 369.657C569.719 369.346 576.735 369.829 583.741 370.014C584.693 370.04 585.62 370.467 586.557 370.704C586.516 370.93 586.477 371.165 586.436 371.392C571.434 371.69 556.43 371.979 541.427 372.277C541.415 372.533 541.405 372.798 541.392 373.055C547.596 374.261 553.835 375.374 560.008 376.692C567.548 378.3 575.067 379.979 582.533 381.841C584.341 382.295 585.532 382.004 587.13 381.144C591.231 378.939 595.446 376.891 599.764 375.115C602.38 374.039 605.291 373.568 608.077 372.822ZM385.619 465.59C372.083 436.337 351.071 415.267 319.974 403.864C321.093 404.933 322.291 405.915 323.534 406.838C329.577 411.35 335.507 415.968 340.242 421.815C341.818 423.755 343.743 425.48 345.729 427.058C352.75 432.602 359.954 437.956 366.929 443.559C370.102 446.113 372.897 449.076 375.867 451.862C375.822 451.883 375.777 451.905 375.73 451.917C367.187 445.393 358.642 438.861 350.1 432.337C349.848 432.536 349.594 432.725 349.343 432.924C349.847 433.933 350.289 434.977 350.871 435.937C352.08 437.91 353.493 439.772 354.612 441.788C356.721 445.563 359.019 449.288 360.538 453.288C361.255 455.168 362.028 456.161 363.897 456.804C368.989 458.561 374.057 460.381 379.066 462.321C381.161 463.128 383.071 464.304 385.619 465.59ZM216.826 321.379C219.57 313.237 220.121 305.251 220.212 297.211C221.449 306.415 220.423 315.512 217.346 325.177C225.574 318.172 230.353 307.048 228.137 297.413C226.014 288.203 221.676 279.746 213.843 273.445C215.358 281.599 213.255 289.063 209.306 296.233C206.149 301.964 205.603 308.035 206.377 314.147C206.968 318.854 209.341 322.859 212.994 326.334C216.783 316.749 212.475 307.797 213.378 298.583C214.504 306.044 215.632 313.514 216.826 321.379ZM522.818 72.6002C522.93 72.2983 523.054 72.0026 523.166 71.7007C530.599 74.6125 538.331 77.0127 545.364 80.5941C552.364 84.1655 558.667 88.9269 565.27 93.1767C561.851 89.0207 557.917 85.2933 554.41 81.2266C547.909 73.6776 539.413 69.7943 529.328 68.2027C522.445 67.1126 515.679 65.4754 508.843 64.1099C508.339 64.0106 507.79 64.1203 507.156 64.1403C514.787 79.3931 538.704 95.1198 550.92 93.0654C547.569 91.7413 544.171 90.5049 540.879 89.0617C536.77 87.2565 533.489 84.3759 533.027 82.081C540.249 89.0992 550.11 90.3478 559.421 92.8031C549.473 82.4744 535.382 78.7406 522.818 72.6002ZM636.857 231.661C637.997 224.127 634.269 217.869 631.057 211.455C627.603 204.552 620.472 201.212 615.019 196.251C624.321 200.566 631.759 206.682 636.144 215.961C635.681 212.831 635.155 209.766 633.734 207.156C628.714 197.898 620.603 191.239 612.002 185.181C609.838 183.661 606.697 182.703 603.96 182.686C596.889 182.64 590.428 185.477 584.074 188.333C583.984 188.376 584.009 188.66 583.911 189.202C609.943 193.871 627.292 208.282 636.857 231.661ZM634.893 98.9442C634.537 102.621 633.958 105.804 634.002 108.961C634.043 112.185 634.676 115.381 635.051 118.6C635.42 118.576 635.79 118.552 636.149 118.53C641.6 109.457 639.906 99.3449 641.264 89.671C641.871 100.956 642.575 112.224 637.174 123.075C640.655 120.07 643.27 116.678 644.333 112.494C647.859 98.6294 648.372 84.8133 643.963 71.2754C642.556 66.9365 640.403 62.8443 638.594 58.632C638.341 58.7093 638.078 58.7891 637.824 58.8665C637.81 59.6483 637.768 60.4379 637.785 61.2209C637.866 64.443 638.584 67.7664 637.944 70.8725C636.596 77.4402 634.812 83.9746 632.712 90.3876C630.191 98.0758 628.144 105.712 630.138 113.644C630.843 116.464 631.91 119.197 632.814 121.965C633.628 114.349 630.573 106.739 634.893 98.9442ZM650.022 332.378C649.811 332.501 649.6 332.623 649.396 332.734C648.53 331.55 647.698 330.339 646.799 329.182C643.385 324.819 639.206 321.466 633.424 320.166C631.101 319.644 629.48 320.229 628.239 322.268C626.358 325.368 626.983 329.936 629.953 333.059C634.591 337.938 640.977 339.218 647.492 340.032C656.023 341.093 664.961 338.745 673.25 342.008C673.351 342.047 673.56 341.841 674.196 341.483C668.823 335.647 666.052 327.615 656.607 324.811C658.207 326.651 659.517 327.978 660.602 329.45C661.609 330.821 662.384 332.347 663.253 333.811C662.981 334.044 662.71 334.285 662.437 334.518C657.915 326.738 651.233 322.154 641.025 321.354C645.341 324.651 648.407 328.02 650.022 332.378ZM657.05 299.781C669.242 296.768 688.506 270.83 685.488 262.713C681.32 265.049 677.231 267.832 672.747 269.746C666.614 272.365 660.943 275.609 656.213 280.055C653.562 282.556 651.501 285.818 649.863 289.032C648.266 292.169 649.505 295.353 650.61 298.338C650.951 298.359 651.304 298.387 651.644 298.408C653.441 293.895 655.246 289.371 657.043 284.858C657.187 284.904 657.322 284.952 657.466 284.998C656.128 289.556 654.79 294.115 653.235 299.454C659.227 296.385 661.66 291.402 665.047 287.288C665.3 287.474 665.55 287.65 665.803 287.836C662.907 291.771 660.015 295.724 657.05 299.781ZM652.868 242.897C657.426 244.066 661.093 245.09 664.812 245.931C670.251 247.164 675.081 246.048 678.906 241.789C680.893 239.578 683.086 237.453 684.618 234.98C688.355 228.953 693.043 224.313 700.591 223.031C700.697 223.012 700.762 222.722 701.136 221.994C697.893 221.682 694.82 220.939 691.818 221.219C688.25 221.547 684.455 222.17 681.293 223.711C674.204 227.157 667.425 231.196 660.58 235.102C658.449 236.32 656.508 237.871 654.487 239.275C658.644 238.414 662.419 236.812 666.338 235.818C670.322 234.807 674.457 234.168 679.086 235.524C674.139 236.278 669.73 236.541 665.585 237.708C661.41 238.883 657.489 240.964 652.868 242.897ZM255.554 301.223C251.706 305.095 248.537 308.429 245.205 311.609C242.148 314.528 240.439 317.968 239.607 321.913C238.559 326.872 240.852 330.617 245.942 331.606C246.725 331.762 248.227 331.266 248.539 330.685C250.437 327.12 252.497 323.549 253.74 319.776C255.631 313.981 256.045 307.983 255.554 301.223ZM697.891 209.241C688.449 207.89 680.794 212.294 673.686 217.077C666.553 221.876 660.313 227.814 655.432 234.765C655.765 235.098 656.107 235.428 656.438 235.752C660.63 232.294 664.688 228.676 669.05 225.435C673.355 222.247 677.979 219.452 682.466 216.487C682.657 216.745 682.848 217.003 683.039 217.262C680.143 219.303 677.247 221.345 673.915 223.691C679.44 222.023 684.372 220.532 689.3 219.025C689.658 218.919 690.059 218.709 690.291 218.44C692.773 215.459 695.245 212.444 697.891 209.241ZM634.12 202.871C634.343 202.718 634.566 202.564 634.786 202.402C631.933 192.779 625.703 185.41 616.89 180.262C610.35 176.436 602.627 175.664 594.553 174.603C596.782 179.246 598.423 180.138 602.852 180.254C604.847 180.31 606.972 180.51 608.777 181.217C616.181 184.099 621.604 189.443 626.973 194.773C629.523 197.315 631.738 200.162 634.12 202.871Z" fill="#FCE1E9"/>
</g>
<defs>
<clipPath id="clip0_82_6">
<rect width="740.668" height="405.706" fill="white" transform="translate(-67.4307 191.699) rotate(-15)"/>
</clipPath>
</defs>
</svg>
